<svg data-v-6805eed4="" version="1.0" xmlns="http://www.w3.org/2000/svg" xmlns:xlink="http://www.w3.org/1999/xlink" width="100%" height="100%" viewBox="0 0 340.000000 250.000000" preserveAspectRatio="xMidYMid meet" color-interpolation-filters="sRGB" style="margin: auto;"> <rect data-v-6805eed4="" x="0" y="0" width="100%" height="100%" fill="#faf7f5" fill-opacity="1" class="background"></rect> <rect data-v-6805eed4="" x="0" y="0" width="100%" height="100%" fill="url(#watermark)" fill-opacity="1" class="watermarklayer"></rect> <g data-v-6805eed4="" class="iconmbgsvg" transform="translate(95,59.2012939453125)"><g fill="#38202d" hollow-target="text"><g mask="url(#67470b25-3456-455d-b55a-8bdaf9f962b1)"><g><rect fill="#38202d" fill-opacity="0" stroke-width="2" x="0" y="0" width="150" height="131.5974171813588" class="image-rect"></rect> <svg filter="url(#colors1882823270)" x="0" y="0" width="150" height="131.5974171813588" filtersec="colorsf4069109615" class="image-svg-svg primary" style="overflow: visible;"><svg xmlns="http://www.w3.org/2000/svg" viewBox="0 -6.465937811214739e-14 58.77001190185547 51.56000518798828"><defs><linearGradient id="a7b5d50a9-7a8d-48f3-86a3-5260d7686d30" x1="29.39" y1="8.76" x2="29.39" y2="48.04" gradientUnits="userSpaceOnUse"><stop offset="0" stop-color="#000000"></stop><stop offset="1" stop-color="#000000"></stop></linearGradient></defs><g><path d="M51.56 40.2v2.26a9.1 9.1 0 0 1-9.1 9.1H9.1a9.1 9.1 0 0 1-9-7.67 11 11 0 0 0 4.17 1.89C18.72 49.31 25 38.08 25 38.08l-7.92-3.21c-5.29 7.06-14.12 3.53-8-.8S24.26 37.71 37 42.14c7.14 2.48 11.72 1.13 14.56-1.94zm0-9.59V9.1a9.1 9.1 0 0 0-6.7-8.78A125.06 125.06 0 0 1 30.05 30c4.49 1.68 8.33 3.41 12.09 4.21l.59.12a18.86 18.86 0 0 0 3.42.33c3.84.1 9.11-.79 12.62-6.31.01 0-6.28 4.32-7.21 2.26zM17 0H9.1A9.1 9.1 0 0 0 0 9.1v23.34C3.57 28.2 10.68 25.1 19.91 27l1.22.27C22.91 24 35.34 0 17 0z" fill="url(#a7b5d50a9-7a8d-48f3-86a3-5260d7686d30)"></path></g></svg></svg> <defs><filter id="colors1882823270"><feColorMatrix type="matrix" values="0 0 0 0 0.21875  0 0 0 0 0.125  0 0 0 0 0.17578125  0 0 0 1 0" class="icon-fecolormatrix"></feColorMatrix></filter> <filter id="colorsf4069109615"><feColorMatrix type="matrix" values="0 0 0 0 0.99609375  0 0 0 0 0.99609375  0 0 0 0 0.99609375  0 0 0 1 0" class="icon-fecolormatrix"></feColorMatrix></filter> <filter id="colorsb3787929084"><feColorMatrix type="matrix" values="0 0 0 0 0  0 0 0 0 0  0 0 0 0 0  0 0 0 1 0" class="icon-fecolormatrix"></feColorMatrix></filter></defs></g></g> <g transform="translate(51.398399353027344,43.56990623474121)"><g data-gra="path-name" fill-rule="" class="tp-name"><g transform="scale(0.96)"><g><path d="M17.6-41.14L17.6-1.76Q17.6 2.53 14.69 2.53L14.69 2.53 7.09 2.53Q4.67 2.53 4.67-1.26L4.67-1.26 4.67-41.09Q4.67-43.67 7.75-43.67L7.75-43.67 14.63-43.67Q17.6-43.67 17.6-41.14L17.6-41.14ZM53.84-6.16L53.84-1.49Q53.84 2.64 50.11 2.64L50.11 2.64 39.33 2.64Q25.19 2.64 25.19-10.18L25.19-10.18 25.19-19.58Q25.19-32.73 38.12-32.73L38.12-32.73 50.44-32.73Q53.84-32.73 53.84-28.93L53.84-28.93 53.84-24.59Q53.84-20.68 50.44-20.68L50.44-20.68 39.11-20.68Q36.14-20.68 36.14-17.98L36.14-17.98 36.14-12.32Q36.14-9.46 38.45-9.46L38.45-9.46 50.27-9.46Q53.84-9.46 53.84-6.16L53.84-6.16Z" transform="translate(-4.670000076293945, 43.66999816894531)"></path></g> <!----> <!----> <!----> <!----> <!----> <!----> <!----></g></g> <!----></g></g></g><mask id="67470b25-3456-455d-b55a-8bdaf9f962b1"><g fill="white"><g><rect fill-opacity="1" stroke-width="2" x="0" y="0" width="150" height="131.5974171813588" class="image-rect"></rect> <svg x="0" y="0" width="150" height="131.5974171813588" class="image-svg-svg primary" style="overflow: visible;" filter="url(#colorsf4069109615)"><svg xmlns="http://www.w3.org/2000/svg" viewBox="0 -6.465937811214739e-14 58.77001190185547 51.56000518798828"><defs><linearGradient id="a7b5d50a9-7a8d-48f3-86a3-5260d7686d30" x1="29.39" y1="8.76" x2="29.39" y2="48.04" gradientUnits="userSpaceOnUse"><stop offset="0" stop-color="#000000"></stop><stop offset="1" stop-color="#000000"></stop></linearGradient></defs><g><path d="M51.56 40.2v2.26a9.1 9.1 0 0 1-9.1 9.1H9.1a9.1 9.1 0 0 1-9-7.67 11 11 0 0 0 4.17 1.89C18.72 49.31 25 38.08 25 38.08l-7.92-3.21c-5.29 7.06-14.12 3.53-8-.8S24.26 37.71 37 42.14c7.14 2.48 11.72 1.13 14.56-1.94zm0-9.59V9.1a9.1 9.1 0 0 0-6.7-8.78A125.06 125.06 0 0 1 30.05 30c4.49 1.68 8.33 3.41 12.09 4.21l.59.12a18.86 18.86 0 0 0 3.42.33c3.84.1 9.11-.79 12.62-6.31.01 0-6.28 4.32-7.21 2.26zM17 0H9.1A9.1 9.1 0 0 0 0 9.1v23.34C3.57 28.2 10.68 25.1 19.91 27l1.22.27C22.91 24 35.34 0 17 0z"></path></g></svg></svg> <defs>  </defs></g></g> <g transform="translate(51.398399353027344,43.56990623474121)" fill="black" stroke="black" stroke-width="6" stroke-linejoin="round"><g data-gra="path-name" fill-rule="" class="tp-name"><g transform="scale(0.96)"><g><path d="M17.6-41.14L17.6-1.76Q17.6 2.53 14.69 2.53L14.69 2.53 7.09 2.53Q4.67 2.53 4.67-1.26L4.67-1.26 4.67-41.09Q4.67-43.67 7.75-43.67L7.75-43.67 14.63-43.67Q17.6-43.67 17.6-41.14L17.6-41.14ZM53.84-6.16L53.84-1.49Q53.84 2.64 50.11 2.64L50.11 2.64 39.33 2.64Q25.19 2.64 25.19-10.18L25.19-10.18 25.19-19.58Q25.19-32.73 38.12-32.73L38.12-32.73 50.44-32.73Q53.84-32.73 53.84-28.93L53.84-28.93 53.84-24.59Q53.84-20.68 50.44-20.68L50.44-20.68 39.11-20.68Q36.14-20.68 36.14-17.98L36.14-17.98 36.14-12.32Q36.14-9.46 38.45-9.46L38.45-9.46 50.27-9.46Q53.84-9.46 53.84-6.16L53.84-6.16Z" transform="translate(-4.670000076293945, 43.66999816894531)"></path></g>       </g></g> </g></mask><defs v-gra="od"></defs></svg>